<svg width="512" height="512" viewBox="0 0 512 512" fill="none" xmlns="http://www.w3.org/2000/svg">
<g clip-path="url(#clip0_4288_2)">
<path d="M384 0H128C57.3075 0 0 57.3075 0 128V384C0 454.692 57.3075 512 128 512H384C454.692 512 512 454.692 512 384V128C512 57.3075 454.692 0 384 0Z" fill="white"/>
<path d="M257.517 384.522C323.577 384.522 377.128 330.97 377.128 264.91C377.128 198.851 323.577 145.299 257.517 145.299C191.457 145.299 137.906 198.851 137.906 264.91C137.906 330.97 191.457 384.522 257.517 384.522Z" fill="#1098F7"/>
<path d="M239.348 358.782H203.01V423.887H239.348V358.782Z" fill="#1098F7"/>
<path d="M312.023 358.782H275.686V423.887H312.023V358.782Z" fill="#1098F7"/>
<path d="M233.292 436C250.016 436 263.573 430.916 263.573 424.644C263.573 418.373 250.016 413.289 233.292 413.289C216.568 413.289 203.01 418.373 203.01 424.644C203.01 430.916 216.568 436 233.292 436Z" fill="#1098F7"/>
<path d="M305.967 434.486C322.691 434.486 336.248 429.402 336.248 423.13C336.248 416.859 322.691 411.775 305.967 411.775C289.243 411.775 275.686 416.859 275.686 423.13C275.686 429.402 289.243 434.486 305.967 434.486Z" fill="#1098F7"/>
<path d="M386.41 212.642C412.314 186.718 426.716 159.111 418.578 150.979C410.44 142.847 382.843 157.27 356.939 183.194C331.035 209.118 316.633 236.725 324.772 244.857C332.91 252.989 360.506 238.566 386.41 212.642Z" fill="#1098F7"/>
<path d="M150.755 323.669C171.657 293.567 180.941 263.844 171.491 257.283C162.041 250.721 137.435 269.804 116.533 299.907C95.6308 330.009 86.347 359.732 95.7971 366.294C105.247 372.855 129.853 353.772 150.755 323.669Z" fill="#1098F7"/>
<path d="M252.484 288.84C275.062 288.84 293.364 270.537 293.364 247.96C293.364 225.382 275.062 207.08 252.484 207.08C229.907 207.08 211.604 225.382 211.604 247.96C211.604 270.537 229.907 288.84 252.484 288.84Z" fill="white"/>
<path d="M266.371 247.7C273.897 247.7 279.998 241.599 279.998 234.073C279.998 226.547 273.897 220.446 266.371 220.446C258.845 220.446 252.744 226.547 252.744 234.073C252.744 241.599 258.845 247.7 266.371 247.7Z" fill="#3F3D56"/>
<path d="M301.496 323.565C305.506 338.011 290.899 351.853 268.869 354.482C246.84 357.112 225.73 347.534 221.72 333.088L221.706 333.037C217.717 318.589 234.753 313.476 256.786 310.861C278.82 308.245 297.508 309.117 301.496 323.565Z" fill="white"/>
<path d="M215.665 194.514C195.939 202.422 175.132 207.309 153.948 209.011C152.47 209.114 150.998 208.748 149.741 207.965C148.483 207.182 147.506 206.021 146.949 204.648L128.785 159.476C128.101 157.767 128.122 155.857 128.844 154.164C129.566 152.47 130.93 151.133 132.637 150.444L246.017 104.855C247.725 104.17 249.636 104.191 251.329 104.913C253.022 105.635 254.36 106.999 255.049 108.706L273.202 153.852C273.76 155.238 273.857 156.766 273.479 158.212C273.102 159.657 272.269 160.942 271.104 161.878C254.324 175.415 235.645 186.411 215.665 194.514Z" fill="#2F2E41"/>
<path opacity="0.2" d="M253.761 109.225L256.797 116.775L204.094 162.961C203.107 163.818 201.85 164.302 200.543 164.329L132.861 165.89L130.074 158.958C129.529 157.591 129.547 156.064 130.124 154.71C130.702 153.356 131.792 152.286 133.156 151.733L246.535 106.143C247.902 105.598 249.43 105.616 250.783 106.194C252.137 106.771 253.208 107.861 253.761 109.225Z" fill="black"/>
<path d="M198.867 154.92C198.094 155.232 197.271 155.402 196.438 155.422L95.299 157.759C93.869 157.792 92.4638 157.383 91.2753 156.587C90.0868 155.791 89.173 154.647 88.659 153.312C88.1451 151.977 88.0559 150.516 88.4037 149.129C88.7516 147.741 89.5194 146.495 90.6023 145.561L161.907 84.0318C163.061 83.0423 164.505 82.4545 166.022 82.3569L270.666 76.0127C272.111 75.9251 273.548 76.2916 274.775 77.061C276.002 77.8304 276.957 78.9641 277.508 80.3035C278.058 81.6429 278.176 83.121 277.845 84.5308C277.514 85.9406 276.75 87.2116 275.661 88.1658L200.852 153.703C200.263 154.218 199.592 154.629 198.867 154.92Z" fill="#2F2E41"/>
<path d="M118.001 184.767L115.424 185.803L100.402 148.439L178.994 116.836L180.03 119.414L104.012 149.981L118.001 184.767Z" fill="#3F3D56"/>
<path d="M117.748 193.416C120.816 193.416 123.303 190.929 123.303 187.862C123.303 184.794 120.816 182.307 117.748 182.307C114.68 182.307 112.194 184.794 112.194 187.862C112.194 190.929 114.68 193.416 117.748 193.416Z" fill="#3F3D56"/>
</g>
<defs>
<clipPath id="clip0_4288_2">
<rect width="512" height="512" fill="white"/>
</clipPath>
</defs>
</svg>
